<svg width="696" height="697" viewBox="0 0 696 697" fill="none" xmlns="http://www.w3.org/2000/svg">
<g id="xbox-logo" filter="url(#filter0_ddi_98_2)">
<path d="M348.967 251.013C330.345 250.652 308.648 257.703 297.618 265.84C314.434 264.393 327.271 268.913 348.787 279.943C370.015 268.525 383.141 264.393 399.594 265.84C386.034 256.257 366.687 251.013 348.967 251.013Z" fill="#F7F7F7"/>
<path d="M322.208 304.894C305.032 288.441 290.873 277.174 280.803 278.858C250.97 303.809 236.687 365.284 271.582 407.774C265.616 384.269 293.279 341.236 322.208 304.894Z" fill="#F7F7F7"/>
<path d="M415.686 413.56C413.879 396.202 384.587 357.871 348.787 329.484C318.05 352.808 283.154 393.128 281.707 414.644C280.919 426.362 315.699 446.286 348.606 446.286C382.237 446.286 417.004 426.216 415.686 413.56Z" fill="#F7F7F7"/>
<path d="M374.282 304.894C391.458 288.441 405.616 277.174 415.687 278.858C445.52 303.809 459.803 365.284 424.908 407.774C430.874 384.269 403.211 341.236 374.282 304.894Z" fill="#F7F7F7"/>
<path d="M348.967 251.013C330.345 250.652 308.648 257.703 297.618 265.84C314.434 264.393 327.271 268.913 348.787 279.943C370.015 268.525 383.141 264.393 399.594 265.84C386.034 256.257 366.687 251.013 348.967 251.013Z" stroke="#F7F7F7" stroke-linecap="round" stroke-linejoin="round"/>
<path d="M322.208 304.894C305.032 288.441 290.873 277.174 280.803 278.858C250.97 303.809 236.687 365.284 271.582 407.774C265.616 384.269 293.279 341.236 322.208 304.894Z" stroke="#F7F7F7" stroke-linecap="round" stroke-linejoin="round"/>
<path d="M415.686 413.56C413.879 396.202 384.587 357.871 348.787 329.484C318.05 352.808 283.154 393.128 281.707 414.644C280.919 426.362 315.699 446.286 348.606 446.286C382.237 446.286 417.004 426.216 415.686 413.56Z" stroke="#F7F7F7" stroke-linecap="round" stroke-linejoin="round"/>
<path d="M374.282 304.894C391.458 288.441 405.616 277.174 415.687 278.858C445.52 303.809 459.803 365.284 424.908 407.774C430.874 384.269 403.211 341.236 374.282 304.894Z" stroke="#F7F7F7" stroke-linecap="round" stroke-linejoin="round"/>
</g>
<defs>
<filter id="filter0_ddi_98_2" x="0.642578" y="0.5" width="695.205" height="696.286" filterUnits="userSpaceOnUse" color-interpolation-filters="sRGB">
<feFlood flood-opacity="0" result="BackgroundImageFix"/>
<feColorMatrix in="SourceAlpha" type="matrix" values="0 0 0 0 0 0 0 0 0 0 0 0 0 0 0 0 0 0 127 0" result="hardAlpha"/>
<feOffset dy="3"/>
<feGaussianBlur stdDeviation="7.5"/>
<feColorMatrix type="matrix" values="0 0 0 0 0 0 0 0 0 0 0 0 0 0 0 0 0 0 0.95 0"/>
<feBlend mode="normal" in2="BackgroundImageFix" result="effect1_dropShadow_98_2"/>
<feColorMatrix in="SourceAlpha" type="matrix" values="0 0 0 0 0 0 0 0 0 0 0 0 0 0 0 0 0 0 127 0" result="hardAlpha"/>
<feOffset/>
<feGaussianBlur stdDeviation="125"/>
<feColorMatrix type="matrix" values="0 0 0 0 0.968627 0 0 0 0 0.968627 0 0 0 0 0.968627 0 0 0 0.6 0"/>
<feBlend mode="normal" in2="effect1_dropShadow_98_2" result="effect2_dropShadow_98_2"/>
<feBlend mode="normal" in="SourceGraphic" in2="effect2_dropShadow_98_2" result="shape"/>
<feColorMatrix in="SourceAlpha" type="matrix" values="0 0 0 0 0 0 0 0 0 0 0 0 0 0 0 0 0 0 127 0" result="hardAlpha"/>
<feOffset dy="-3"/>
<feGaussianBlur stdDeviation="3.5"/>
<feComposite in2="hardAlpha" operator="arithmetic" k2="-1" k3="1"/>
<feColorMatrix type="matrix" values="0 0 0 0 0.729167 0 0 0 0 0.729167 0 0 0 0 0.729167 0 0 0 0.7 0"/>
<feBlend mode="normal" in2="shape" result="effect3_innerShadow_98_2"/>
</filter>
</defs>
</svg>
