<?xml version="1.0" encoding="UTF-8"?>
<svg id="Camada_2" data-name="Camada 2" xmlns="http://www.w3.org/2000/svg" viewBox="0 0 316 424.64">
  <g id="Camada_1-2" data-name="Camada 1">
    <g id="spotify">
      <circle id="bg" cx="158" cy="158" r="158" style="fill: #00d95a;"/>
      <path id="spotify3" d="M64,108.5c61-16.5,133.5-12.5,193.5,19.5" style="fill: none; stroke: #202120; stroke-linecap: round; stroke-width: 30px;"/>
      <path id="spotify2" d="M72,159c60.5-15.5,115.5-8.5,165.5,20" style="fill: none; stroke: #202120; stroke-linecap: round; stroke-width: 25px;"/>
      <path id="spotify1" d="M76,206c59.5-10.5,96-10,145,16" style="fill: none; stroke: #202120; stroke-linecap: round; stroke-width: 20px;"/>
      <g id="text-spotify">
        <path d="M30.39,339.68c5.89,0,10.94.99,15.17,2.98,4.22,1.92,7.94,4.99,11.14,9.22l-9.12,8.93c-1.66-3.46-3.87-6.02-6.62-7.68-2.75-1.73-6.24-2.59-10.46-2.59-3.84,0-6.82.74-8.93,2.21-2.05,1.41-3.07,3.3-3.07,5.66,0,2.18,1.06,3.9,3.17,5.18,2.11,1.28,5.92,2.4,11.42,3.36,5.76,1.09,10.34,2.43,13.73,4.03,3.39,1.6,5.86,3.62,7.39,6.05,1.6,2.37,2.4,5.34,2.4,8.93,0,3.9-1.12,7.3-3.36,10.18-2.18,2.82-5.25,4.99-9.22,6.53-3.9,1.54-8.38,2.3-13.44,2.3-6.98,0-12.7-.96-17.18-2.88-4.42-1.98-8-4.96-10.75-8.93l7.87-9.41c2.37,3.9,5.09,6.62,8.16,8.16,3.07,1.47,6.88,2.21,11.42,2.21,4.1,0,7.2-.64,9.31-1.92,2.18-1.28,3.26-3.1,3.26-5.47,0-1.73-1.02-3.17-3.07-4.32-1.98-1.15-5.57-2.24-10.75-3.26-5.95-1.22-10.72-2.66-14.3-4.32-3.52-1.66-6.08-3.71-7.68-6.14-1.6-2.43-2.4-5.44-2.4-9.02,0-3.78,1.02-7.17,3.07-10.18,2.05-3.07,5.02-5.47,8.93-7.2,3.97-1.73,8.61-2.59,13.92-2.59ZM91.7,355.04c6.4,0,11.42,2.21,15.07,6.62,3.65,4.35,5.47,10.43,5.47,18.24s-1.82,14.02-5.47,18.43-8.67,6.62-15.07,6.62c-3.46,0-6.46-.77-9.02-2.3-2.56-1.6-4.58-3.78-6.05-6.53v28.03h-13.15v-68.16h11.62l.48,9.5c1.41-3.2,3.49-5.73,6.24-7.58,2.82-1.92,6.11-2.88,9.89-2.88ZM87.77,394.88c3.58,0,6.37-1.28,8.35-3.84,1.98-2.56,2.98-6.24,2.98-11.04s-.99-8.48-2.98-11.04c-1.98-2.56-4.77-3.84-8.35-3.84-3.2,0-5.79,1.12-7.78,3.36-1.98,2.18-3.1,5.31-3.36,9.41v4.22c.26,4.03,1.38,7.17,3.36,9.41,1.98,2.24,4.58,3.36,7.78,3.36ZM142.09,355.04c7.74,0,13.76,2.21,18.05,6.62,4.35,4.42,6.53,10.53,6.53,18.34s-2.18,13.92-6.53,18.34c-4.29,4.42-10.3,6.62-18.05,6.62s-13.79-2.21-18.14-6.62c-4.29-4.42-6.43-10.53-6.43-18.34s2.14-13.92,6.43-18.34c4.35-4.42,10.4-6.62,18.14-6.62ZM142.09,364.83c-3.71,0-6.56,1.28-8.54,3.84-1.92,2.5-2.88,6.27-2.88,11.33s.96,8.86,2.88,11.42c1.98,2.5,4.83,3.74,8.54,3.74s6.53-1.25,8.45-3.74c1.98-2.56,2.98-6.37,2.98-11.42s-.99-8.83-2.98-11.33c-1.92-2.56-4.74-3.84-8.45-3.84ZM206.48,401.02c-1.54,1.22-3.49,2.18-5.86,2.88-2.3.7-4.74,1.06-7.3,1.06-10.69,0-16.03-4.83-16.03-14.5v-24.67h-8.74v-9.79h8.74v-11.04l13.15-3.65v14.69h15.55v9.79h-15.55v22.56c0,4.42,2.21,6.62,6.62,6.62,2.82,0,5.28-.9,7.39-2.69l2.02,8.74ZM217.49,349.09c-5.44,0-8.16-2.34-8.16-7.01s2.72-7.1,8.16-7.1,8.16,2.37,8.16,7.1-2.72,7.01-8.16,7.01ZM224.02,404h-13.15v-48h13.15v48ZM250.15,356h15.17v9.79h-14.59v38.21h-13.15v-38.21h-8.35v-9.79h8.35v-5.76c0-5.25,1.63-9.25,4.9-12,3.26-2.82,7.68-4.22,13.25-4.22,2.11,0,4.03.22,5.76.67,1.79.45,3.2,1.06,4.22,1.82l-1.82,8.74c-1.47-.96-3.3-1.44-5.47-1.44-5.5,0-8.26,2.46-8.26,7.39v4.8ZM295.96,406.98c-2.37,6.53-5.12,11.1-8.26,13.73-3.07,2.62-7.2,3.94-12.38,3.94s-9.25-1.25-12.19-3.74l3.26-9.31c1.02,1.15,2.14,1.92,3.36,2.3,1.28.45,2.85.67,4.7.67,1.98,0,3.58-.42,4.8-1.25,1.22-.83,2.24-2.34,3.07-4.51l1.73-4.13-5.28-12.48-14.69-36.19h14.59l9.02,28.8,2.59,9.6,2.88-10.18,8.83-28.22h13.34l-19.39,50.98Z" style="fill: #00d95a;"/>
      </g>
    </g>
  </g>
</svg>