<svg width="617" height="625" viewBox="0 0 617 625" fill="none" xmlns="http://www.w3.org/2000/svg">
<g id="xbox-logo" filter="url(#filter0_ddi_98_6)">
<path fill-rule="evenodd" clip-rule="evenodd" d="M251 312.5C252 267.5 282 251 310 251C340.5 251.5 366 272.5 366 312.5C365 358.5 335.5 373 310 374C266.5 373 252 341.5 251 312.5ZM310 267C289 265.923 270 279 269 312.5C269.5 337.5 281 357 310 357.5C332.5 355.5 346 339.5 346.5 312.5C346.5 282.5 329.5 268 310 267Z" fill="#F7F7F7"/>
<path fill-rule="evenodd" clip-rule="evenodd" d="M251 312.5C252 267.5 282 251 310 251C340.5 251.5 366 272.5 366 312.5C365 358.5 335.5 373 310 374C266.5 373 252 341.5 251 312.5ZM310 267C289 265.923 270 279 269 312.5C269.5 337.5 281 357 310 357.5C332.5 355.5 346 339.5 346.5 312.5C346.5 282.5 329.5 268 310 267Z" stroke="#F7F7F7"/>
</g>
<defs>
<filter id="filter0_ddi_98_6" x="0.499756" y="0.5" width="616" height="624" filterUnits="userSpaceOnUse" color-interpolation-filters="sRGB">
<feFlood flood-opacity="0" result="BackgroundImageFix"/>
<feColorMatrix in="SourceAlpha" type="matrix" values="0 0 0 0 0 0 0 0 0 0 0 0 0 0 0 0 0 0 127 0" result="hardAlpha"/>
<feOffset dy="3"/>
<feGaussianBlur stdDeviation="7.5"/>
<feColorMatrix type="matrix" values="0 0 0 0 0 0 0 0 0 0 0 0 0 0 0 0 0 0 0.7 0"/>
<feBlend mode="normal" in2="BackgroundImageFix" result="effect1_dropShadow_98_6"/>
<feColorMatrix in="SourceAlpha" type="matrix" values="0 0 0 0 0 0 0 0 0 0 0 0 0 0 0 0 0 0 127 0" result="hardAlpha"/>
<feOffset/>
<feGaussianBlur stdDeviation="125"/>
<feColorMatrix type="matrix" values="0 0 0 0 1 0 0 0 0 1 0 0 0 0 1 0 0 0 0.3 0"/>
<feBlend mode="normal" in2="effect1_dropShadow_98_6" result="effect2_dropShadow_98_6"/>
<feBlend mode="normal" in="SourceGraphic" in2="effect2_dropShadow_98_6" result="shape"/>
<feColorMatrix in="SourceAlpha" type="matrix" values="0 0 0 0 0 0 0 0 0 0 0 0 0 0 0 0 0 0 127 0" result="hardAlpha"/>
<feOffset dy="-3"/>
<feGaussianBlur stdDeviation="3.5"/>
<feComposite in2="hardAlpha" operator="arithmetic" k2="-1" k3="1"/>
<feColorMatrix type="matrix" values="0 0 0 0 0.729412 0 0 0 0 0.729412 0 0 0 0 0.729412 0 0 0 0.7 0"/>
<feBlend mode="normal" in2="shape" result="effect3_innerShadow_98_6"/>
</filter>
</defs>
</svg>
