<?xml version="1.0" encoding="UTF-8"?>
<svg id="Camada_1" data-name="Camada 1" xmlns="http://www.w3.org/2000/svg" viewBox="0 0 571 358.44">
  <g id="box-figma">
    <path id="text" d="M54.2,92.08c-3.41,0-6.34-.48-8.78-1.44-2.45-1.01-4.49-2.4-6.12-4.18-1.58-1.78-2.76-3.86-3.53-6.26-.77-2.4-1.15-5.04-1.15-7.92v-31.18h9.14v30.31c0,2.26.24,4.2.72,5.83.53,1.58,1.25,2.88,2.16,3.89.96,1.01,2.06,1.75,3.31,2.23,1.3.48,2.74.72,4.32.72s3.02-.24,4.32-.72c1.3-.48,2.4-1.22,3.31-2.23.96-1.01,1.68-2.3,2.16-3.89.53-1.63.79-3.58.79-5.83v-30.31h9.14v31.18c0,2.88-.41,5.52-1.22,7.92-.77,2.4-1.97,4.49-3.6,6.26-1.58,1.78-3.62,3.17-6.12,4.18-2.5.96-5.45,1.44-8.86,1.44ZM115.19,91c-1.39-2.83-3.14-5.95-5.26-9.36s-4.32-6.7-6.62-9.86c-.96,1.25-2.02,2.74-3.17,4.46-1.1,1.73-2.23,3.5-3.38,5.33-1.1,1.78-2.14,3.5-3.1,5.18s-1.73,3.1-2.3,4.25h-10.3c2.16-4.08,4.66-8.26,7.49-12.53,2.83-4.32,5.9-8.83,9.22-13.54l-15.98-23.83h10.8l11.02,17.06,10.87-17.06h10.37l-15.77,23.76c3.65,4.94,6.86,9.62,9.65,14.04,2.83,4.42,5.21,8.45,7.13,12.1h-10.66ZM134.56,104.32h-8.93l24.34-69.7h8.78l-24.19,69.7ZM182.73,92.08c-3.41,0-6.34-.48-8.78-1.44-2.45-1.01-4.49-2.4-6.12-4.18-1.58-1.78-2.76-3.86-3.53-6.26-.77-2.4-1.15-5.04-1.15-7.92v-31.18h9.14v30.31c0,2.26.24,4.2.72,5.83.53,1.58,1.25,2.88,2.16,3.89.96,1.01,2.06,1.75,3.31,2.23,1.3.48,2.74.72,4.32.72s3.02-.24,4.32-.72c1.3-.48,2.4-1.22,3.31-2.23.96-1.01,1.68-2.3,2.16-3.89.53-1.63.79-3.58.79-5.83v-30.31h9.14v31.18c0,2.88-.41,5.52-1.22,7.92-.77,2.4-1.97,4.49-3.6,6.26-1.58,1.78-3.62,3.17-6.12,4.18-2.5.96-5.45,1.44-8.86,1.44ZM214.13,41.1h9.07v49.9h-9.07v-49.9ZM261.03,83.51c.53.05,1.22.1,2.09.14h3.53c6.1,0,10.63-1.54,13.61-4.61,3.02-3.12,4.54-7.46,4.54-13.03s-1.46-10.01-4.39-13.03-7.46-4.54-13.61-4.54c-2.69,0-4.61.07-5.76.22v34.85ZM294.3,66.02c0,4.32-.67,8.09-2.02,11.3-1.34,3.17-3.26,5.83-5.76,7.99-2.45,2.11-5.42,3.7-8.93,4.75-3.46,1.01-7.3,1.51-11.52,1.51-2.02,0-4.3-.1-6.84-.29-2.54-.14-4.97-.48-7.27-1.01v-48.46c2.3-.53,4.75-.86,7.34-1.01,2.59-.14,4.9-.22,6.91-.22,4.18,0,7.99.5,11.45,1.51,3.46.96,6.41,2.5,8.86,4.61,2.5,2.06,4.42,4.7,5.76,7.92,1.34,3.17,2.02,6.96,2.02,11.38ZM301.68,72.35c0-3.31.48-6.22,1.44-8.71,1.01-2.5,2.33-4.56,3.96-6.19,1.63-1.68,3.5-2.93,5.62-3.74,2.11-.86,4.27-1.3,6.48-1.3,5.18,0,9.22,1.61,12.1,4.82,2.93,3.22,4.39,8.02,4.39,14.4,0,.48-.02,1.03-.07,1.66,0,.58-.02,1.1-.07,1.58h-24.84c.24,3.02,1.3,5.38,3.17,7.06,1.92,1.63,4.68,2.45,8.28,2.45,2.11,0,4.03-.19,5.76-.58,1.78-.38,3.17-.79,4.18-1.22l1.15,7.13c-.48.24-1.15.5-2.02.79-.82.24-1.78.46-2.88.65-1.06.24-2.21.43-3.46.58-1.25.14-2.52.22-3.82.22-3.31,0-6.19-.48-8.64-1.44-2.45-1.01-4.46-2.38-6.05-4.1-1.58-1.78-2.76-3.84-3.53-6.19-.77-2.4-1.15-5.02-1.15-7.85ZM326.95,68.46c0-1.2-.17-2.33-.5-3.38-.34-1.1-.84-2.04-1.51-2.81-.62-.82-1.42-1.44-2.38-1.87-.91-.48-2.02-.72-3.31-.72s-2.52.26-3.53.79c-1.01.48-1.87,1.13-2.59,1.94-.67.82-1.2,1.75-1.58,2.81s-.65,2.14-.79,3.24h16.2ZM354.33,84.74c2.3,0,3.98-.26,5.04-.79,1.06-.58,1.58-1.54,1.58-2.88,0-1.25-.58-2.28-1.73-3.1-1.1-.82-2.95-1.7-5.54-2.66-1.58-.58-3.05-1.18-4.39-1.8-1.3-.67-2.42-1.44-3.38-2.3-.96-.86-1.73-1.9-2.3-3.1-.53-1.25-.79-2.76-.79-4.54,0-3.46,1.27-6.17,3.82-8.14,2.54-2.02,6-3.02,10.37-3.02,2.21,0,4.32.22,6.34.65,2.02.38,3.53.77,4.54,1.15l-1.58,7.06c-.96-.43-2.18-.82-3.67-1.15-1.49-.38-3.22-.58-5.18-.58-1.78,0-3.22.31-4.32.94-1.1.58-1.66,1.49-1.66,2.74,0,.62.1,1.18.29,1.66.24.48.62.94,1.15,1.37.53.38,1.22.79,2.09,1.22.86.38,1.92.79,3.17,1.22,2.06.77,3.82,1.54,5.26,2.3,1.44.72,2.62,1.56,3.53,2.52.96.91,1.66,1.97,2.09,3.17.43,1.2.65,2.64.65,4.32,0,3.6-1.34,6.34-4.03,8.21-2.64,1.82-6.43,2.74-11.38,2.74-3.31,0-5.98-.29-7.99-.86-2.02-.53-3.43-.96-4.25-1.3l1.51-7.27c1.3.53,2.83,1.03,4.61,1.51,1.82.48,3.89.72,6.19.72ZM386.59,91h-8.71v-37.66h8.71v37.66ZM387.53,42.33c0,1.63-.53,2.93-1.58,3.89s-2.3,1.44-3.74,1.44-2.76-.48-3.82-1.44-1.58-2.26-1.58-3.89.53-3,1.58-3.96,2.33-1.44,3.82-1.44,2.69.48,3.74,1.44,1.58,2.28,1.58,3.96ZM404.55,71.2c0,3.7.79,6.41,2.38,8.14,1.63,1.68,3.72,2.52,6.26,2.52,1.39,0,2.69-.19,3.89-.58,1.25-.38,2.26-.84,3.02-1.37v-19.51c-.62-.14-1.39-.26-2.3-.36-.91-.14-2.06-.22-3.46-.22-3.17,0-5.59,1.06-7.27,3.17-1.68,2.06-2.52,4.8-2.52,8.21ZM428.81,87.18c0,6-1.54,10.39-4.61,13.18-3.02,2.78-7.68,4.18-13.97,4.18-2.3,0-4.56-.19-6.77-.58-2.16-.38-4.13-.89-5.9-1.51l1.58-7.42c1.49.62,3.17,1.13,5.04,1.51,1.92.38,3.98.58,6.19.58,3.5,0,6-.72,7.49-2.16,1.49-1.44,2.23-3.58,2.23-6.41v-1.44c-.86.43-2.02.86-3.46,1.3-1.39.43-3,.65-4.82.65-2.4,0-4.61-.38-6.62-1.15-1.97-.77-3.67-1.9-5.11-3.38-1.39-1.49-2.5-3.34-3.31-5.54-.77-2.26-1.15-4.85-1.15-7.78,0-2.74.41-5.26,1.22-7.56.86-2.3,2.09-4.27,3.67-5.9,1.63-1.63,3.6-2.9,5.9-3.82,2.3-.91,4.92-1.37,7.85-1.37s5.52.22,8.06.65c2.54.43,4.7.89,6.48,1.37v32.62ZM439.9,54.57c1.68-.48,3.86-.94,6.55-1.37,2.69-.43,5.66-.65,8.93-.65,3.07,0,5.64.43,7.7,1.3,2.06.82,3.7,1.99,4.9,3.53,1.25,1.49,2.11,3.31,2.59,5.47.53,2.11.79,4.44.79,6.98v21.17h-8.71v-19.8c0-2.02-.14-3.72-.43-5.11-.24-1.44-.67-2.59-1.3-3.46-.58-.91-1.39-1.56-2.45-1.94-1.01-.43-2.26-.65-3.74-.65-1.1,0-2.26.07-3.46.22-1.2.14-2.09.26-2.66.36v30.38h-8.71v-36.43ZM491.01,81.42c.1.82.14,1.42.14,1.8v1.15c0,2.98-.48,6.05-1.44,9.22-.91,3.17-2.21,6.17-3.89,9l-6.84-1.87c1.15-2.78,1.92-5.52,2.3-8.21.43-2.64.65-4.97.65-6.98,0-.58-.02-1.3-.07-2.16,0-.86-.02-1.51-.07-1.94h9.22ZM34.98,177v-49.9h31.54v7.7h-22.46v12.74h19.94v7.7h-19.94v21.74h-9.07ZM93.83,147.19c-.72-.24-1.73-.48-3.02-.72-1.25-.29-2.71-.43-4.39-.43-.96,0-1.99.1-3.1.29-1.06.19-1.8.36-2.23.5v30.17h-8.71v-35.86c1.68-.62,3.77-1.2,6.26-1.73,2.54-.58,5.35-.86,8.42-.86.58,0,1.25.05,2.02.14.77.05,1.54.14,2.3.29.77.1,1.51.24,2.23.43.72.14,1.3.29,1.73.43l-1.51,7.34ZM135.47,158.14c0,2.98-.43,5.69-1.3,8.14s-2.09,4.54-3.67,6.26c-1.58,1.73-3.5,3.07-5.76,4.03-2.21.96-4.66,1.44-7.34,1.44s-5.14-.48-7.34-1.44c-2.21-.96-4.1-2.3-5.69-4.03-1.58-1.73-2.83-3.82-3.74-6.26-.86-2.45-1.3-5.16-1.3-8.14s.43-5.66,1.3-8.06c.91-2.45,2.16-4.54,3.74-6.26,1.63-1.73,3.55-3.05,5.76-3.96,2.21-.96,4.63-1.44,7.27-1.44s5.06.48,7.27,1.44c2.26.91,4.18,2.23,5.76,3.96s2.81,3.82,3.67,6.26c.91,2.4,1.37,5.09,1.37,8.06ZM126.54,158.14c0-3.74-.82-6.7-2.45-8.86-1.58-2.21-3.82-3.31-6.7-3.31s-5.14,1.1-6.77,3.31c-1.58,2.16-2.38,5.11-2.38,8.86s.79,6.79,2.38,9c1.63,2.21,3.89,3.31,6.77,3.31s5.11-1.1,6.7-3.31c1.63-2.21,2.45-5.21,2.45-9ZM144.44,140.57c1.68-.48,3.86-.94,6.55-1.37,2.69-.43,5.66-.65,8.93-.65,3.07,0,5.64.43,7.7,1.3,2.06.82,3.7,1.99,4.9,3.53,1.25,1.49,2.11,3.31,2.59,5.47.53,2.11.79,4.44.79,6.98v21.17h-8.71v-19.8c0-2.02-.14-3.72-.43-5.11-.24-1.44-.67-2.59-1.3-3.46-.58-.91-1.39-1.56-2.45-1.94-1.01-.43-2.26-.65-3.74-.65-1.1,0-2.26.07-3.46.22-1.2.14-2.09.26-2.66.36v30.38h-8.71v-36.43ZM186.13,129.41l8.71-1.44v11.38h13.39v7.27h-13.39v15.34c0,3.02.48,5.18,1.44,6.48.96,1.3,2.59,1.94,4.9,1.94,1.58,0,2.98-.17,4.18-.5,1.25-.34,2.23-.65,2.95-.94l1.44,6.91c-1.01.43-2.33.86-3.96,1.3-1.63.48-3.55.72-5.76.72-2.69,0-4.94-.36-6.77-1.08-1.78-.72-3.19-1.75-4.25-3.1-1.06-1.39-1.8-3.05-2.23-4.97-.43-1.97-.65-4.2-.65-6.7v-32.62ZM210.23,152.45h19.37v7.99h-19.37v-7.99ZM237.27,177v-49.9h32.04v7.7h-22.97v12.31h20.45v7.56h-20.45v14.62h24.7v7.7h-33.77ZM279.02,140.57c1.68-.48,3.86-.94,6.55-1.37,2.69-.43,5.66-.65,8.93-.65,3.07,0,5.64.43,7.7,1.3,2.06.82,3.7,1.99,4.9,3.53,1.25,1.49,2.11,3.31,2.59,5.47.53,2.11.79,4.44.79,6.98v21.17h-8.71v-19.8c0-2.02-.14-3.72-.43-5.11-.24-1.44-.67-2.59-1.3-3.46-.58-.91-1.39-1.56-2.45-1.94-1.01-.43-2.26-.65-3.74-.65-1.1,0-2.26.07-3.46.22-1.2.14-2.09.26-2.66.36v30.38h-8.71v-36.43ZM327.98,158.06c0,3.84.91,6.86,2.74,9.07,1.82,2.16,4.34,3.24,7.56,3.24,1.39,0,2.57-.05,3.53-.14,1.01-.14,1.82-.29,2.45-.43v-21.6c-.77-.53-1.8-1.01-3.1-1.44-1.25-.48-2.59-.72-4.03-.72-3.17,0-5.5,1.08-6.98,3.24-1.44,2.16-2.16,5.09-2.16,8.78ZM352.96,175.85c-1.73.53-3.91,1.01-6.55,1.44-2.59.43-5.33.65-8.21.65s-5.64-.46-7.99-1.37c-2.35-.91-4.37-2.21-6.05-3.89-1.63-1.73-2.9-3.79-3.82-6.19-.86-2.45-1.3-5.18-1.3-8.21s.36-5.66,1.08-8.06c.77-2.45,1.87-4.54,3.31-6.26,1.44-1.73,3.19-3.05,5.26-3.96,2.06-.96,4.44-1.44,7.13-1.44,1.82,0,3.43.22,4.82.65,1.39.43,2.59.91,3.6,1.44v-18.07l8.71-1.44v54.72ZM373.03,167.42c.1.82.14,1.42.14,1.8v1.15c0,2.98-.48,6.05-1.44,9.22-.91,3.17-2.21,6.17-3.89,9l-6.84-1.87c1.15-2.78,1.92-5.52,2.3-8.21.43-2.64.65-4.97.65-6.98,0-.58-.02-1.3-.07-2.16,0-.86-.02-1.51-.07-1.94h9.22ZM45.85,213.1c1.06,1.82,2.23,4.06,3.53,6.7s2.62,5.42,3.96,8.35c1.34,2.88,2.66,5.83,3.96,8.86,1.34,2.98,2.57,5.74,3.67,8.28,1.1-2.54,2.3-5.3,3.6-8.28,1.3-3.02,2.62-5.98,3.96-8.86,1.34-2.93,2.66-5.71,3.96-8.35s2.47-4.87,3.53-6.7h8.21c.43,3.65.84,7.54,1.22,11.66.38,4.08.72,8.28,1.01,12.6.34,4.27.62,8.59.86,12.96.29,4.32.53,8.54.72,12.67h-8.93c-.19-5.81-.43-11.78-.72-17.93-.24-6.14-.62-12.1-1.15-17.86-.53,1.1-1.15,2.42-1.87,3.96-.72,1.54-1.49,3.22-2.3,5.04-.82,1.78-1.66,3.62-2.52,5.54-.82,1.92-1.63,3.79-2.45,5.62-.77,1.78-1.49,3.46-2.16,5.04-.67,1.54-1.25,2.86-1.73,3.96h-6.77c-.48-1.1-1.06-2.45-1.73-4.03-.67-1.58-1.42-3.26-2.23-5.04-.77-1.82-1.58-3.7-2.45-5.62-.82-1.92-1.63-3.77-2.45-5.54s-1.58-3.43-2.3-4.97c-.72-1.58-1.34-2.9-1.87-3.96-.53,5.76-.94,11.71-1.22,17.86-.24,6.14-.46,12.12-.65,17.93h-8.93c.19-4.13.41-8.4.65-12.82.29-4.42.58-8.78.86-13.1.34-4.37.7-8.59,1.08-12.67s.79-7.85,1.22-11.3h8.42ZM132.23,244.14c0,2.98-.43,5.69-1.3,8.14s-2.09,4.54-3.67,6.26-3.5,3.07-5.76,4.03c-2.21.96-4.66,1.44-7.34,1.44s-5.14-.48-7.34-1.44c-2.21-.96-4.1-2.3-5.69-4.03s-2.83-3.82-3.74-6.26c-.86-2.45-1.3-5.16-1.3-8.14s.43-5.66,1.3-8.06c.91-2.45,2.16-4.54,3.74-6.26,1.63-1.73,3.55-3.05,5.76-3.96,2.21-.96,4.63-1.44,7.27-1.44s5.06.48,7.27,1.44c2.26.91,4.18,2.23,5.76,3.96s2.81,3.82,3.67,6.26c.91,2.4,1.37,5.09,1.37,8.06ZM123.3,244.14c0-3.74-.82-6.7-2.45-8.86-1.58-2.21-3.82-3.31-6.7-3.31s-5.14,1.1-6.77,3.31c-1.58,2.16-2.38,5.11-2.38,8.86s.79,6.79,2.38,9c1.63,2.21,3.89,3.31,6.77,3.31s5.11-1.1,6.7-3.31c1.63-2.21,2.45-5.21,2.45-9ZM140.78,215.41l8.71-1.44v11.38h13.39v7.27h-13.39v15.34c0,3.02.48,5.18,1.44,6.48.96,1.3,2.59,1.94,4.9,1.94,1.58,0,2.98-.17,4.18-.5,1.25-.34,2.23-.65,2.95-.94l1.44,6.91c-1.01.43-2.33.86-3.96,1.3-1.63.48-3.55.72-5.76.72-2.69,0-4.94-.36-6.77-1.08-1.78-.72-3.19-1.75-4.25-3.1-1.06-1.39-1.8-3.05-2.23-4.97-.43-1.97-.65-4.2-.65-6.7v-32.62ZM180.09,263h-8.71v-37.66h8.71v37.66ZM181.02,214.33c0,1.63-.53,2.93-1.58,3.89-1.06.96-2.3,1.44-3.74,1.44s-2.76-.48-3.82-1.44c-1.06-.96-1.58-2.26-1.58-3.89s.53-3,1.58-3.96c1.06-.96,2.33-1.44,3.82-1.44s2.69.48,3.74,1.44c1.06.96,1.58,2.28,1.58,3.96ZM225.26,244.14c0,2.98-.43,5.69-1.3,8.14-.86,2.45-2.09,4.54-3.67,6.26s-3.5,3.07-5.76,4.03c-2.21.96-4.66,1.44-7.34,1.44s-5.14-.48-7.34-1.44c-2.21-.96-4.1-2.3-5.69-4.03s-2.83-3.82-3.74-6.26c-.86-2.45-1.3-5.16-1.3-8.14s.43-5.66,1.3-8.06c.91-2.45,2.16-4.54,3.74-6.26,1.63-1.73,3.55-3.05,5.76-3.96,2.21-.96,4.63-1.44,7.27-1.44s5.06.48,7.27,1.44c2.26.91,4.18,2.23,5.76,3.96s2.81,3.82,3.67,6.26c.91,2.4,1.37,5.09,1.37,8.06ZM216.33,244.14c0-3.74-.82-6.7-2.45-8.86-1.58-2.21-3.82-3.31-6.7-3.31s-5.14,1.1-6.77,3.31c-1.58,2.16-2.38,5.11-2.38,8.86s.79,6.79,2.38,9c1.63,2.21,3.89,3.31,6.77,3.31s5.11-1.1,6.7-3.31c1.63-2.21,2.45-5.21,2.45-9ZM234.23,226.57c1.68-.48,3.86-.94,6.55-1.37,2.69-.43,5.66-.65,8.93-.65,3.07,0,5.64.43,7.7,1.3,2.06.82,3.7,1.99,4.9,3.53,1.25,1.49,2.11,3.31,2.59,5.47.53,2.11.79,4.44.79,6.98v21.17h-8.71v-19.8c0-2.02-.14-3.72-.43-5.11-.24-1.44-.67-2.59-1.3-3.46-.58-.91-1.39-1.56-2.45-1.94-1.01-.43-2.26-.65-3.74-.65-1.1,0-2.26.07-3.46.22s-2.09.26-2.66.36v30.38h-8.71v-36.43ZM302.66,255.51c.53.05,1.22.1,2.09.14h3.53c6.1,0,10.63-1.54,13.61-4.61,3.02-3.12,4.54-7.46,4.54-13.03s-1.46-10.01-4.39-13.03c-2.93-3.02-7.46-4.54-13.61-4.54-2.69,0-4.61.07-5.76.22v34.85ZM335.92,238.02c0,4.32-.67,8.09-2.02,11.3-1.34,3.17-3.26,5.83-5.76,7.99-2.45,2.11-5.42,3.7-8.93,4.75-3.46,1.01-7.3,1.51-11.52,1.51-2.02,0-4.3-.1-6.84-.29-2.54-.14-4.97-.48-7.27-1.01v-48.46c2.3-.53,4.75-.86,7.34-1.01,2.59-.14,4.9-.22,6.91-.22,4.18,0,7.99.5,11.45,1.51,3.46.96,6.41,2.5,8.86,4.61,2.5,2.06,4.42,4.7,5.76,7.92,1.34,3.17,2.02,6.96,2.02,11.38ZM343.31,244.35c0-3.31.48-6.22,1.44-8.71,1.01-2.5,2.33-4.56,3.96-6.19,1.63-1.68,3.5-2.93,5.62-3.74,2.11-.86,4.27-1.3,6.48-1.3,5.18,0,9.22,1.61,12.1,4.82,2.93,3.22,4.39,8.02,4.39,14.4,0,.48-.02,1.03-.07,1.66,0,.58-.02,1.1-.07,1.58h-24.84c.24,3.02,1.3,5.38,3.17,7.06,1.92,1.63,4.68,2.45,8.28,2.45,2.11,0,4.03-.19,5.76-.58,1.78-.38,3.17-.79,4.18-1.22l1.15,7.13c-.48.24-1.15.5-2.02.79-.82.24-1.78.46-2.88.65-1.06.24-2.21.43-3.46.58-1.25.14-2.52.22-3.82.22-3.31,0-6.19-.48-8.64-1.44-2.45-1.01-4.46-2.38-6.05-4.1-1.58-1.78-2.76-3.84-3.53-6.19-.77-2.4-1.15-5.02-1.15-7.85ZM368.58,240.46c0-1.2-.17-2.33-.5-3.38-.34-1.1-.84-2.04-1.51-2.81-.62-.82-1.42-1.44-2.38-1.87-.91-.48-2.02-.72-3.31-.72s-2.52.26-3.53.79c-1.01.48-1.87,1.13-2.59,1.94-.67.82-1.2,1.75-1.58,2.81s-.65,2.14-.79,3.24h16.2ZM395.96,256.74c2.3,0,3.98-.26,5.04-.79,1.06-.58,1.58-1.54,1.58-2.88,0-1.25-.58-2.28-1.73-3.1-1.1-.82-2.95-1.7-5.54-2.66-1.58-.58-3.05-1.18-4.39-1.8-1.3-.67-2.42-1.44-3.38-2.3-.96-.86-1.73-1.9-2.3-3.1-.53-1.25-.79-2.76-.79-4.54,0-3.46,1.27-6.17,3.82-8.14,2.54-2.02,6-3.02,10.37-3.02,2.21,0,4.32.22,6.34.65,2.02.38,3.53.77,4.54,1.15l-1.58,7.06c-.96-.43-2.18-.82-3.67-1.15-1.49-.38-3.22-.58-5.18-.58-1.78,0-3.22.31-4.32.94-1.1.58-1.66,1.49-1.66,2.74,0,.62.1,1.18.29,1.66.24.48.62.94,1.15,1.37.53.38,1.22.79,2.09,1.22.86.38,1.92.79,3.17,1.22,2.06.77,3.82,1.54,5.26,2.3,1.44.72,2.62,1.56,3.53,2.52.96.91,1.66,1.97,2.09,3.17.43,1.2.65,2.64.65,4.32,0,3.6-1.34,6.34-4.03,8.21-2.64,1.82-6.43,2.74-11.38,2.74-3.31,0-5.98-.29-7.99-.86-2.02-.53-3.43-.96-4.25-1.3l1.51-7.27c1.3.53,2.83,1.03,4.61,1.51,1.82.48,3.89.72,6.19.72ZM428.22,263h-8.71v-37.66h8.71v37.66ZM429.15,214.33c0,1.63-.53,2.93-1.58,3.89-1.06.96-2.3,1.44-3.74,1.44s-2.76-.48-3.82-1.44c-1.06-.96-1.58-2.26-1.58-3.89s.53-3,1.58-3.96c1.06-.96,2.33-1.44,3.82-1.44s2.69.48,3.74,1.44c1.06.96,1.58,2.28,1.58,3.96ZM446.17,243.2c0,3.7.79,6.41,2.38,8.14,1.63,1.68,3.72,2.52,6.26,2.52,1.39,0,2.69-.19,3.89-.58,1.25-.38,2.26-.84,3.02-1.37v-19.51c-.62-.14-1.39-.26-2.3-.36-.91-.14-2.06-.22-3.46-.22-3.17,0-5.59,1.06-7.27,3.17-1.68,2.06-2.52,4.8-2.52,8.21ZM470.44,259.18c0,6-1.54,10.39-4.61,13.18-3.02,2.78-7.68,4.18-13.97,4.18-2.3,0-4.56-.19-6.77-.58-2.16-.38-4.13-.89-5.9-1.51l1.58-7.42c1.49.62,3.17,1.13,5.04,1.51,1.92.38,3.98.58,6.19.58,3.5,0,6-.72,7.49-2.16,1.49-1.44,2.23-3.58,2.23-6.41v-1.44c-.86.43-2.02.86-3.46,1.3-1.39.43-3,.65-4.82.65-2.4,0-4.61-.38-6.62-1.15-1.97-.77-3.67-1.9-5.11-3.38-1.39-1.49-2.5-3.34-3.31-5.54-.77-2.26-1.15-4.85-1.15-7.78,0-2.74.41-5.26,1.22-7.56.86-2.3,2.09-4.27,3.67-5.9,1.63-1.63,3.6-2.9,5.9-3.82,2.3-.91,4.92-1.37,7.85-1.37s5.52.22,8.06.65c2.54.43,4.7.89,6.48,1.37v32.62ZM481.52,226.57c1.68-.48,3.86-.94,6.55-1.37,2.69-.43,5.66-.65,8.93-.65,3.07,0,5.64.43,7.7,1.3,2.06.82,3.7,1.99,4.9,3.53,1.25,1.49,2.11,3.31,2.59,5.47.53,2.11.79,4.44.79,6.98v21.17h-8.71v-19.8c0-2.02-.14-3.72-.43-5.11-.24-1.44-.67-2.59-1.3-3.46-.58-.91-1.39-1.56-2.45-1.94-1.01-.43-2.26-.65-3.74-.65-1.1,0-2.26.07-3.46.22-1.2.14-2.09.26-2.66.36v30.38h-8.71v-36.43ZM533.43,258.25c0,1.68-.58,3.05-1.73,4.1-1.1,1.06-2.45,1.58-4.03,1.58s-3-.53-4.1-1.58-1.66-2.42-1.66-4.1.55-3.05,1.66-4.1c1.1-1.1,2.47-1.66,4.1-1.66s2.93.55,4.03,1.66c1.15,1.06,1.73,2.42,1.73,4.1Z" style="fill: #f9f9f9;"/>
    <g id="box">
      <rect id="figny9-box" x="6" y="6" width="559" height="286" style="fill: rgba(95, 227, 106, .05); stroke: #5fe36a; stroke-width: 2px;"/>
      <rect id="figny9-adjust-1" x="1" y="1" width="10" height="10" style="fill: #fff; stroke: #5fe36a; stroke-width: 2px;"/>
      <rect id="figny9-adjust-3" x="1" y="287" width="10" height="10" style="fill: #fff; stroke: #5fe36a; stroke-width: 2px;"/>
      <rect id="figny9-adjust-4" x="560" y="287" width="10" height="10" style="fill: #fff; stroke: #5fe36a; stroke-width: 2px;"/>
      <rect id="figny9-adjust-2" x="560" y="1" width="10" height="10" style="fill: #fff; stroke: #5fe36a; stroke-width: 2px;"/>
    </g>
    <g id="cursor">
      <path id="Vector_273" data-name="Vector 273" d="M378.5,329l-5.5-26,23.5,14-11.5,2.5-6.5,9.5Z" style="fill: #5fe36a; stroke: #fff; stroke-width: 2px;"/>
      <rect id="Rectangle_786" data-name="Rectangle 786" x="396" y="332.56" width="108.23" height="25.89" style="fill: #5fe36a;"/>
      <path id="Neto_Russo" data-name="Neto Russo" d="M415.63,337.53c0-.09.08-.19.19-.19h1.08c.09,0,.19.1.19.19v12.58c0,.09-.09.17-.19.17h-1.06c-.15,0-.23-.04-.34-.19l-8.17-10.26v10.28c0,.09-.08.17-.17.17h-1.1c-.09,0-.17-.08-.17-.17v-12.58c0-.09.08-.19.17-.19h1.04c.15,0,.23.04.36.19l8.17,10.3v-10.3ZM426.58,348.57c.15-.09.25-.04.29.04l.36.7c.06.09.02.17-.08.25-.7.47-1.94.91-3.27.91-1.42,0-2.6-.49-3.38-1.39-.72-.8-1.12-1.9-1.12-3.19,0-1.22.42-2.32,1.14-3.1.72-.78,1.77-1.25,3.13-1.25s2.45.55,3.12,1.37c.63.8.97,1.92.89,3.27,0,.13-.1.21-.23.21h-6.61c.06.72.3,1.39.74,1.9.55.67,1.39,1.04,2.43,1.04s1.88-.34,2.58-.76ZM426.33,345.38c-.04-.78-.29-1.42-.7-1.9-.44-.48-1.12-.82-1.98-.82-.95,0-1.67.34-2.15.89-.4.47-.65,1.14-.68,1.82h5.51ZM431.46,347.26c0,.59.08,1.06.29,1.39.25.42.67.63,1.35.63.51,0,1.01-.13,1.56-.53.13-.09.23-.08.29.02l.34.74c.06.1.02.17-.08.25-.67.48-1.54.72-2.45.72-1.03,0-1.69-.32-2.11-.84-.44-.55-.59-1.35-.59-2.2v-4.64h-1.01c-.09,0-.19-.08-.19-.17v-.74c0-.1.09-.19.19-.19h1.01v-1.65c0-.09.1-.19.19-.19h1.03c.1,0,.19.1.19.19v1.65h2.98c.09,0,.19.09.19.19v.74c0,.1-.1.17-.19.17h-2.98v4.46ZM437.06,342.83c.82-.82,1.98-1.29,3.27-1.29s2.45.47,3.27,1.29c.8.78,1.27,1.88,1.27,3.17s-.48,2.39-1.27,3.17c-.82.82-1.98,1.29-3.27,1.29s-2.45-.48-3.27-1.29c-.8-.78-1.27-1.88-1.27-3.17s.47-2.39,1.27-3.17ZM438.01,348.32c.55.63,1.37,1.01,2.32,1.01s1.77-.38,2.32-1.01c.55-.59.85-1.41.85-2.32s-.3-1.73-.85-2.32c-.55-.63-1.37-1.01-2.32-1.01s-1.77.38-2.32,1.01c-.55.59-.85,1.41-.85,2.32s.3,1.73.85,2.32ZM458.44,345.15l3.61,4.83c.09.15.11.3-.09.3h-1.29c-.17,0-.27-.04-.36-.19l-3.57-4.86h-3.25v4.88c0,.09-.09.17-.19.17h-1.16c-.09,0-.17-.08-.17-.17v-12.58c0-.09.08-.19.17-.19h5.13c1.23,0,2.28.15,3.15.74.93.63,1.52,1.71,1.52,3.21,0,1.41-.57,2.43-1.5,3.1-.61.46-1.23.66-1.99.76ZM453.48,338.63v5.32h3.48c.95,0,1.69-.08,2.32-.44.67-.38,1.12-1.08,1.12-2.2s-.44-1.82-1.08-2.22c-.63-.38-1.37-.46-2.22-.46h-3.61ZM463.38,341.88c0-.1.08-.19.17-.19h1.03c.11,0,.19.09.19.19v4.63c0,.76.09,1.22.34,1.67.36.61,1.08,1.04,2.22,1.04s1.88-.42,2.2-1.03c.27-.46.34-.93.34-1.69v-4.63c0-.1.09-.19.19-.19h1.03c.09,0,.17.09.17.19v4.77c0,1.1-.19,1.79-.63,2.43-.61.89-1.77,1.39-3.31,1.39s-2.72-.49-3.32-1.39c-.44-.65-.63-1.33-.63-2.43v-4.77ZM478.05,348.06c0-.72-.53-1.04-1.22-1.35-.55-.25-1.39-.48-2.07-.8-.82-.38-1.41-1.03-1.41-2.07,0-1.44,1.12-2.32,3.13-2.32,1.18,0,2.09.3,2.66.63.13.08.13.15.1.25l-.38.78c-.06.11-.13.13-.25.06-.65-.36-1.37-.55-2.07-.55-1.18,0-1.75.4-1.75,1.16,0,.63.47.91,1.04,1.16.65.29,1.5.51,2.07.8.97.46,1.58,1.12,1.58,2.15,0,1.56-1.24,2.53-3.17,2.53-1.41,0-2.39-.38-2.96-.72-.11-.06-.13-.13-.08-.23l.38-.78c.06-.11.13-.15.25-.08.65.4,1.42.68,2.36.68,1.12,0,1.79-.38,1.79-1.29ZM485.68,348.06c0-.72-.53-1.04-1.22-1.35-.55-.25-1.39-.48-2.07-.8-.82-.38-1.41-1.03-1.41-2.07,0-1.44,1.12-2.32,3.13-2.32,1.18,0,2.09.3,2.66.63.13.08.13.15.09.25l-.38.78c-.06.11-.13.13-.25.06-.65-.36-1.37-.55-2.07-.55-1.18,0-1.75.4-1.75,1.16,0,.63.47.91,1.04,1.16.65.29,1.5.51,2.07.8.97.46,1.58,1.12,1.58,2.15,0,1.56-1.23,2.53-3.17,2.53-1.41,0-2.39-.38-2.96-.72-.11-.06-.13-.13-.08-.23l.38-.78c.06-.11.13-.15.25-.08.65.4,1.42.68,2.36.68,1.12,0,1.79-.38,1.79-1.29ZM490.05,342.83c.82-.82,1.98-1.29,3.27-1.29s2.45.47,3.27,1.29c.8.78,1.27,1.88,1.27,3.17s-.48,2.39-1.27,3.17c-.82.82-1.98,1.29-3.27,1.29s-2.45-.48-3.27-1.29c-.8-.78-1.27-1.88-1.27-3.17s.47-2.39,1.27-3.17ZM491,348.32c.55.63,1.37,1.01,2.32,1.01s1.77-.38,2.32-1.01c.55-.59.85-1.41.85-2.32s-.3-1.73-.85-2.32c-.55-.63-1.37-1.01-2.32-1.01s-1.77.38-2.32,1.01c-.55.59-.85,1.41-.85,2.32s.3,1.73.85,2.32Z" style="fill: #1a2228;"/>
    </g>
  </g>
</svg>