<?xml version="1.0" encoding="UTF-8"?>
<svg id="Camada_1" data-name="Camada 1" xmlns="http://www.w3.org/2000/svg" viewBox="0 0 290.32 44.37">
  <path d="M34.35.45c0-.26.26-.45.45-.45h2.12c.26,0,.45.19.45.45v42.83c0,.26-.19.45-.45.45h-2.18c-.38,0-.58-.06-.9-.45L3.02,4.95v38.34c0,.26-.26.45-.45.45H.45c-.26,0-.45-.19-.45-.45V.45c0-.26.19-.45.45-.45h2.12c.39,0,.58.13.84.52l30.95,38.4V.45Z" style="fill: #fff;"/>
  <path d="M70.21,39.3c.45-.26.58-.19.77.06l.64,1.29c.13.26,0,.44-.26.64-2.38,1.48-6.42,3.08-10.92,3.08-4.75,0-8.73-1.8-11.43-4.95-2.25-2.57-3.53-6.16-3.53-10.4s1.28-7.64,3.66-10.27c2.38-2.7,5.91-4.37,10.53-4.37s7.83,1.8,10.08,4.43c2.18,2.5,3.4,6.16,3.27,10.53,0,.39-.26.58-.64.58h-24.02c.19,3.27,1.09,5.84,2.76,7.9,2.12,2.7,5.46,4.3,9.44,4.3s7.32-1.35,9.63-2.82ZM70.27,27.74c-.06-3.27-1.16-5.91-2.76-7.71-1.73-1.92-4.49-3.4-7.83-3.4-3.85,0-6.74,1.48-8.6,3.79-1.61,1.86-2.5,4.56-2.7,7.32h21.9Z" style="fill: #fff;"/>
  <path d="M84.29,34.16c0,2.25.32,4.11,1.22,5.46.96,1.47,2.63,2.31,5.33,2.31,1.99,0,3.79-.45,5.85-1.92.38-.26.58-.19.71.06l.71,1.41c.13.26,0,.45-.26.64-2.25,1.47-4.82,2.25-7.64,2.25-3.4,0-5.59-1.03-6.94-2.76-1.28-1.8-1.73-4.3-1.73-7.13v-17.27h-3.6c-.19,0-.38-.19-.38-.45v-1.35c0-.26.19-.45.38-.45h3.6v-5.52c0-.26.19-.45.38-.45h1.93c.26,0,.45.19.45.45v5.52h11.11c.26,0,.45.19.45.45v1.35c0,.26-.19.45-.45.45h-11.11v16.95Z" style="fill: #fff;"/>
  <path d="M103.69,18.88c2.7-2.76,6.55-4.5,10.98-4.5s8.35,1.74,11.05,4.5c2.57,2.64,4.11,6.36,4.11,10.53s-1.54,7.84-4.11,10.47c-2.7,2.82-6.55,4.5-11.05,4.5s-8.28-1.67-10.98-4.5c-2.57-2.63-4.11-6.36-4.11-10.47s1.54-7.9,4.11-10.53ZM105.55,38.08c2.25,2.44,5.46,3.98,9.12,3.98s6.94-1.54,9.18-3.98c1.99-2.25,3.14-5.27,3.14-8.67s-1.16-6.48-3.14-8.73c-2.25-2.44-5.46-3.92-9.18-3.92s-6.87,1.47-9.12,3.92c-1.99,2.25-3.21,5.33-3.21,8.73s1.22,6.42,3.21,8.67Z" style="fill: #fff;"/>
  <path d="M157.2,25.69l13.74,17.27c.26.38.26.77-.26.77h-2.44c-.52,0-.64-.06-.9-.45l-13.81-17.53h-12.46v17.53c0,.26-.19.45-.45.45h-2.18c-.26,0-.45-.19-.45-.45V.45c0-.26.19-.45.45-.45h16.63c4.17,0,7.45.39,10.46,2.32,3.15,1.92,5.2,5.33,5.2,10.59s-2.12,8.35-5.2,10.4c-2.5,1.67-4.94,2.24-8.35,2.37ZM141.08,2.64v20.49h13.16c3.6,0,6.49-.19,8.93-1.61,2.57-1.54,4.43-4.18,4.43-8.61s-1.8-7.13-4.3-8.61c-2.5-1.41-5.33-1.67-8.8-1.67h-13.42Z" style="fill: #fff;"/>
  <path d="M176.04,15.41c0-.26.19-.45.45-.45h1.93c.19,0,.38.19.38.45v15.93c0,3.08.45,4.75,1.41,6.48,1.29,2.31,4.11,3.92,8.54,3.92s7.26-1.61,8.54-3.92c1.03-1.73,1.41-3.4,1.41-6.48v-15.93c0-.26.19-.45.45-.45h1.93c.19,0,.45.19.45.45v16.31c0,3.66-.58,5.78-1.93,7.96-1.8,2.95-5.65,4.69-10.85,4.69s-9.05-1.74-10.85-4.69c-1.35-2.18-1.86-4.3-1.86-7.96V15.41Z" style="fill: #fff;"/>
  <path d="M226.14,36.54c0-2.95-2.12-4.24-4.88-5.46-1.8-.84-5.07-1.74-7.39-2.83-2.57-1.16-4.75-3.08-4.75-6.55,0-4.63,3.66-7.33,10.14-7.33,3.73,0,6.61.97,8.41,1.93.32.19.32.45.19.71l-.64,1.41c-.13.32-.32.32-.64.19-2.12-1.02-4.37-1.86-7.13-1.86-4.94,0-7.51,1.8-7.51,4.95,0,2.5,1.67,3.72,3.85,4.68,2.25.96,5.52,1.99,7.39,2.82,3.21,1.48,5.84,3.28,5.84,7.06,0,5.2-3.98,8.09-10.08,8.09-4.82,0-8.16-1.41-9.96-2.38-.26-.19-.32-.38-.19-.64l.77-1.54c.13-.32.32-.39.64-.19,2.12,1.29,5.01,2.44,8.67,2.44,4.49,0,7.26-1.86,7.26-5.52Z" style="fill: #fff;"/>
  <path d="M251.39,36.54c0-2.95-2.12-4.24-4.88-5.46-1.8-.84-5.07-1.74-7.39-2.83-2.57-1.16-4.75-3.08-4.75-6.55,0-4.63,3.66-7.33,10.14-7.33,3.73,0,6.61.97,8.41,1.93.32.19.32.45.19.71l-.64,1.41c-.13.32-.32.32-.64.19-2.12-1.02-4.37-1.86-7.13-1.86-4.94,0-7.51,1.8-7.51,4.95,0,2.5,1.67,3.72,3.85,4.68,2.25.96,5.52,1.99,7.39,2.82,3.21,1.48,5.84,3.28,5.84,7.06,0,5.2-3.98,8.09-10.08,8.09-4.82,0-8.16-1.41-9.96-2.38-.26-.19-.32-.38-.19-.64l.77-1.54c.13-.32.32-.39.64-.19,2.12,1.29,5.01,2.44,8.67,2.44,4.49,0,7.26-1.86,7.26-5.52Z" style="fill: #fff;"/>
  <path d="M264.18,18.88c2.7-2.76,6.55-4.5,10.98-4.5s8.35,1.74,11.05,4.5c2.57,2.64,4.11,6.36,4.11,10.53s-1.54,7.84-4.11,10.47c-2.7,2.82-6.55,4.5-11.05,4.5s-8.28-1.67-10.98-4.5c-2.57-2.63-4.11-6.36-4.11-10.47s1.54-7.9,4.11-10.53ZM266.04,38.08c2.25,2.44,5.46,3.98,9.12,3.98s6.94-1.54,9.18-3.98c1.99-2.25,3.14-5.27,3.14-8.67s-1.16-6.48-3.14-8.73c-2.25-2.44-5.46-3.92-9.18-3.92s-6.87,1.47-9.12,3.92c-1.99,2.25-3.21,5.33-3.21,8.73s1.22,6.42,3.21,8.67Z" style="fill: #fff;"/>
  <g id="group"></g>
</svg>