<?xml version="1.0" encoding="UTF-8"?>
<svg id="texto" xmlns="http://www.w3.org/2000/svg" viewBox="0 0 136.54 20.66">
  <path d="M0,20.33V.15h2.84l6.47,10.21c1.5,2.37,2.66,4.49,3.62,6.56l.06-.03c-.24-2.7-.3-5.15-.3-8.29V.15h2.46v20.18h-2.63l-6.41-10.24c-1.41-2.25-2.75-4.55-3.77-6.74l-.09.03c.15,2.54.21,4.97.21,8.32v8.62H0Z" style="fill: #fff;"/>
  <path d="M21.07,13.56c.06,3.56,2.33,5.03,4.97,5.03,1.89,0,3.02-.33,4.01-.75l.45,1.89c-.93.42-2.52.9-4.82.9-4.46,0-7.12-2.93-7.12-7.31s2.57-7.81,6.8-7.81c4.73,0,5.99,4.16,5.99,6.83,0,.54-.06.96-.09,1.23h-10.18ZM28.8,11.68c.03-1.68-.69-4.28-3.65-4.28-2.66,0-3.83,2.45-4.04,4.28h7.69Z" style="fill: #fff;"/>
  <path d="M37.78,1.68v4.16h3.77v2.01h-3.77v7.81c0,1.8.51,2.81,1.98,2.81.69,0,1.2-.09,1.53-.18l.12,1.98c-.51.21-1.32.36-2.34.36-1.23,0-2.22-.39-2.84-1.11-.75-.78-1.02-2.07-1.02-3.77v-7.9h-2.25v-2.01h2.25v-3.47l2.57-.69Z" style="fill: #fff;"/>
  <path d="M57.45,12.96c0,5.36-3.71,7.69-7.22,7.69-3.92,0-6.95-2.87-6.95-7.45,0-4.85,3.17-7.69,7.19-7.69s6.98,3.02,6.98,7.46ZM45.95,13.11c0,3.17,1.83,5.57,4.4,5.57s4.4-2.37,4.4-5.63c0-2.46-1.23-5.57-4.34-5.57s-4.46,2.87-4.46,5.63Z" style="fill: #fff;"/>
  <path d="M67.2.42c1.32-.27,3.2-.42,5-.42,2.78,0,4.58.51,5.84,1.65,1.02.9,1.59,2.27,1.59,3.83,0,2.66-1.68,4.43-3.8,5.15v.09c1.56.54,2.49,1.98,2.96,4.07.66,2.81,1.14,4.76,1.56,5.54h-2.7c-.33-.57-.78-2.31-1.35-4.82-.6-2.78-1.68-3.83-4.04-3.92h-2.46v8.74h-2.6V.42ZM69.81,9.61h2.67c2.78,0,4.55-1.53,4.55-3.83,0-2.6-1.89-3.74-4.64-3.77-1.26,0-2.16.12-2.58.24v7.36Z" style="fill: #fff;"/>
  <path d="M95.35,16.38c0,1.5.03,2.81.12,3.95h-2.34l-.15-2.37h-.06c-.69,1.17-2.21,2.69-4.79,2.69-2.28,0-5-1.26-5-6.35V5.84h2.63v8.02c0,2.75.84,4.61,3.23,4.61,1.77,0,2.99-1.23,3.47-2.39.15-.39.24-.87.24-1.35V5.84h2.63v10.54Z" style="fill: #fff;"/>
  <path d="M99.35,17.63c.78.51,2.16,1.05,3.47,1.05,1.92,0,2.81-.96,2.81-2.16,0-1.26-.75-1.95-2.69-2.67-2.61-.93-3.83-2.37-3.83-4.1,0-2.33,1.88-4.25,5-4.25,1.47,0,2.76.42,3.56.9l-.66,1.92c-.57-.36-1.62-.84-2.96-.84-1.56,0-2.43.9-2.43,1.98,0,1.2.87,1.74,2.75,2.46,2.52.96,3.8,2.21,3.8,4.37,0,2.54-1.98,4.34-5.42,4.34-1.59,0-3.05-.39-4.07-.99l.66-2.01Z" style="fill: #fff;"/>
  <path d="M111.21,17.63c.78.51,2.15,1.05,3.47,1.05,1.92,0,2.81-.96,2.81-2.16,0-1.26-.75-1.95-2.7-2.67-2.6-.93-3.83-2.37-3.83-4.1,0-2.33,1.89-4.25,5-4.25,1.47,0,2.75.42,3.56.9l-.66,1.92c-.57-.36-1.62-.84-2.96-.84-1.56,0-2.42.9-2.42,1.98,0,1.2.87,1.74,2.75,2.46,2.51.96,3.8,2.21,3.8,4.37,0,2.54-1.98,4.34-5.42,4.34-1.59,0-3.05-.39-4.07-.99l.66-2.01Z" style="fill: #fff;"/>
  <path d="M136.54,12.96c0,5.36-3.71,7.69-7.21,7.69-3.92,0-6.95-2.87-6.95-7.45,0-4.85,3.17-7.69,7.18-7.69s6.98,3.02,6.98,7.46ZM125.04,13.11c0,3.17,1.83,5.57,4.4,5.57s4.4-2.37,4.4-5.63c0-2.46-1.23-5.57-4.34-5.57s-4.46,2.87-4.46,5.63Z" style="fill: #fff;"/>
  <g id="group"></g>
</svg>